<?xml version="1.0" encoding="UTF-8"?>
<!DOCTYPE svg PUBLIC "-//W3C//DTD SVG 1.1//EN" "http://www.w3.org/Graphics/SVG/1.1/DTD/svg11.dtd">
<!-- Creator: CorelDRAW X7 -->
<svg xmlns="http://www.w3.org/2000/svg" xml:space="preserve" width="7.86193in" height="6.99489in" version="1.1" style="shape-rendering:geometricPrecision; text-rendering:geometricPrecision; image-rendering:optimizeQuality; fill-rule:evenodd; clip-rule:evenodd"
viewBox="0 0 7564 6730" fill=#53C1DE
 xmlns:xlink="http://www.w3.org/1999/xlink">
 <defs>
  <style type="text/css">
   <![CDATA[
    .fil0 {fill:#53C1DE}
   ]]>
  </style>
 </defs>
 <g id="Layer_x0020_1">
  <metadata id="CorelCorpID_0Corel-Layer"/>
  <path class="fil0" d="M3782 2683c373,0 676,303 676,676 0,373 -303,675 -676,675 -373,0 -675,-302 -675,-675 0,-373 302,-676 675,-676zm2438 -502c-79,-27 -160,-52 -244,-76 14,-57 26,-112 38,-166 184,-895 63,-1616 -348,-1853 -395,-228 -1040,9 -1692,577 -63,54 -125,112 -188,172 -42,-40 -84,-78 -126,-115 -683,-607 -1367,-862 -1779,-624 -394,228 -511,905 -345,1753 16,82 35,166 56,251 -97,28 -190,57 -280,88 -801,279 -1312,717 -1312,1171 0,469 549,939 1383,1224 66,22 134,44 205,64 -23,92 -43,182 -60,270 -158,833 -34,1495 359,1722 406,234 1088,-7 1751,-587 53,-46 105,-95 158,-146 69,66 137,129 205,187 643,553 1278,777 1670,549 406,-235 538,-945 367,-1810 -13,-66 -29,-134 -46,-202 48,-15 95,-29 141,-44 867,-288 1431,-752 1431,-1227 0,-456 -527,-896 -1344,-1178l0 0 0 0zm-189 2098c-41,14 -83,27 -127,40 -95,-303 -225,-626 -383,-959 151,-325 275,-643 368,-944 78,22 153,46 225,71 700,241 1127,597 1127,872 0,292 -461,672 -1210,920l0 0 0 0zm-310 616c75,382 86,728 36,998 -45,243 -136,405 -248,469 -238,138 -748,-41 -1298,-514 -63,-54 -126,-112 -190,-173 213,-234 426,-505 634,-806 366,-32 711,-85 1025,-157 15,62 29,123 41,183l0 0 0 0zm-3142 1444c-233,82 -419,84 -531,20 -238,-138 -337,-669 -202,-1382 15,-81 34,-165 55,-251 310,69 653,118 1019,148 210,294 429,565 650,802 -48,46 -97,91 -144,133 -294,256 -588,438 -847,530l0 0 0 0zm-1091 -2062c-369,-126 -674,-290 -883,-469 -187,-160 -282,-320 -282,-449 0,-276 411,-627 1096,-866 83,-29 170,-56 260,-82 95,308 219,630 369,956 -152,330 -278,657 -374,969 -64,-19 -126,-38 -186,-59l0 0 0 0zm366 -2490c-143,-726 -48,-1274 189,-1412 253,-146 813,63 1403,586 38,34 75,69 113,105 -219,236 -437,505 -644,798 -356,32 -696,85 -1009,156 -20,-79 -38,-157 -52,-233l0 0 0 0zm3262 806c-74,-129 -151,-255 -230,-378 242,30 473,71 690,120 -65,209 -146,428 -242,652 -69,-131 -141,-262 -218,-394l0 0 0 0zm-1330 -1296c149,161 298,342 445,537 -148,-7 -298,-10 -449,-10 -149,0 -298,3 -445,10 147,-194 297,-374 449,-537l0 0 0 0zm-1339 1298c-75,130 -146,261 -214,391 -94,-223 -174,-442 -240,-654 216,-48 446,-88 686,-118 -80,124 -157,251 -232,381l0 0 0 0zm238 1931c-247,-27 -481,-65 -697,-112 67,-215 149,-440 246,-668 67,131 139,262 214,392l0 0c77,132 156,262 237,388l0 0 0 0zm1110 917c-153,-165 -306,-348 -455,-544 144,5 292,8 442,8 154,0 307,-3 457,-10 -147,200 -296,383 -444,546l0 0 0 0zm1542 -1708c101,230 187,453 254,665 -219,50 -456,91 -705,121 78,-125 156,-253 232,-385 77,-134 150,-268 219,-401l0 0 0 0zm-499 239c-118,205 -240,401 -363,586 -225,16 -456,24 -693,24 -235,0 -464,-7 -685,-22 -128,-187 -252,-383 -369,-586l0 0c-118,-202 -225,-407 -323,-609 98,-204 205,-408 322,-610l0 0c116,-203 239,-398 366,-584 225,-17 456,-26 689,-26l0 0c234,0 465,9 690,26 125,185 248,379 365,582 118,205 227,408 326,607 -98,202 -207,407 -325,612l0 0 0 0zm666 -3608c254,146 352,735 193,1507 -10,50 -21,100 -34,151 -314,-73 -654,-127 -1011,-160 -208,-296 -424,-565 -640,-798 58,-56 116,-109 174,-160 559,-486 1081,-678 1318,-540l0 0 0 0z"/>
 </g>
</svg>
